<svg version="1.1" class="phone-icon" xmlns="http://www.w3.org/2000/svg" xmlns:xlink="http://www.w3.org/1999/xlink" x="0px" y="0px" viewBox="0 0 119.8 162" xml:space="preserve">
    <path class="st0" d="M40.7,0.1l-1.1,47.6c5.8,0.1,8.7-0.8,11.3-5.5s3.7-37.9,0.3-40.2S40.7,0.1,40.7,0.1" />
    <path class="st0" d="M114.6,148.5l-35.5-28.7c3.6-4.3,6-5.9,11.1-4.9c5.1,1,30,20.8,29.6,24.8C119.4,143.6,114.6,148.5,114.6,148.5" />
    <path class="st1" d="M51.9,149.7c8.6,6.9,14.6,12.3,29,12.3c18.6,0,31.6-11.5,31.6-11.5l-35.6-28.7c0,0-10.2,4.4-14,1.9
	c-7.4-5-35.8-61.4-33.5-67.7c1.3-3.4,6.8-7.6,6.8-7.6L37.5,0C11.7,0.1,2.2,13.5,0.5,28c-2.2,18.9,3.3,54.2,11.7,71.3
	C20.9,116.9,35.1,136.2,51.9,149.7z" />
</svg>
