<svg class="phone-no" xmlns="http://www.w3.org/2000/svg" xmlns:xlink="http://www.w3.org/1999/xlink" x="0px" y="0px" viewBox="0 0 147.15 26.38" xml:space="preserve">
 <path d="M1.2783203125,18.197265625q0-1.998046875,0.537109375-3.65234375t1.84765625-2.7822265625t3.22265625-1.1279296875q2.4599609375,0,3.9638671875,1.869140625l-0.73046875,0.90234375q-1.2568359375-1.6328125-3.2333984375-1.6328125q-1.138671875,0-2.0087890625,0.55859375t-1.353515625,1.50927734375t-0.72509765625,2.04638671875t-0.24169921875,2.3310546875q0,0.4619140625,0.021484375,0.6875q0.5478515625-0.90234375,1.73486328125-1.67578125t2.55126953125-0.7734375q2.0947265625,0,3.41064453125,1.19775390625t1.31591796875,3.44287109375q0,1.912109375-1.3427734375,3.30322265625t-3.5771484375,1.39111328125q-1.138671875,0-2.06787109375-0.4189453125t-1.546875-1.12255859375t-1.0205078125-1.6865234375t-0.580078125-2.05712890625t-0.17724609375-2.3095703125z M2.642578125,20.087890625q0.0859375,1.1171875,0.4833984375,2.08935546875t1.2998046875,1.71875t2.19140625,0.74658203125q1.740234375,0,2.72314453125-1.09033203125t0.98291015625-2.43310546875q0-1.740234375-1.01513671875-2.63720703125t-2.66943359375-0.89697265625q-1.1923828125,0-2.27734375,0.69287109375t-1.71875,1.81005859375z M15.15185546875,14.2548828125l3.2333984375-3.4052734375l1.1494140625,0l0,14.673828125l-1.2568359375,0l0-12.955078125l-2.3525390625,2.5029296875z M24.36328125,18.197265625q0-1.998046875,0.537109375-3.65234375t1.84765625-2.7822265625t3.22265625-1.1279296875q2.4599609375,0,3.9638671875,1.869140625l-0.73046875,0.90234375q-1.2568359375-1.6328125-3.2333984375-1.6328125q-1.138671875,0-2.0087890625,0.55859375t-1.353515625,1.50927734375t-0.72509765625,2.04638671875t-0.24169921875,2.3310546875q0,0.4619140625,0.021484375,0.6875q0.5478515625-0.90234375,1.73486328125-1.67578125t2.55126953125-0.7734375q2.0947265625,0,3.41064453125,1.19775390625t1.31591796875,3.44287109375q0,1.912109375-1.3427734375,3.30322265625t-3.5771484375,1.39111328125q-1.138671875,0-2.06787109375-0.4189453125t-1.546875-1.12255859375t-1.0205078125-1.6865234375t-0.580078125-2.05712890625t-0.17724609375-2.3095703125z M25.7275390625,20.087890625q0.0859375,1.1171875,0.4833984375,2.08935546875t1.2998046875,1.71875t2.19140625,0.74658203125q1.740234375,0,2.72314453125-1.09033203125t0.98291015625-2.43310546875q0-1.740234375-1.01513671875-2.63720703125t-2.66943359375-0.89697265625q-1.1923828125,0-2.27734375,0.69287109375t-1.71875,1.81005859375z M45.6650390625,14.2548828125l3.2333984375-3.4052734375l1.1494140625,0l0,14.673828125l-1.2568359375,0l0-12.955078125l-2.3525390625,2.5029296875z M54.37158203125,21.5166015625l0-1.1171875l6.509765625-9.5498046875l1.697265625,0l0,9.5283203125l2.1484375,0l0,1.138671875l-2.1484375,0l0,4.0068359375l-1.2568359375,0l0-4.0068359375l-6.9501953125,0z M55.67138671875,20.3779296875l5.650390625,0l0-8.271484375z M68.4599609375,25.5234375l0-1.03125q1.76171875-1.4287109375,2.814453125-2.3095703125t2.23974609375-2.00341796875t1.8154296875-1.94970703125t1.04736328125-1.7294921875t0.4189453125-1.7294921875q0-1.4716796875-0.9990234375-2.234375t-2.341796875-0.7626953125q-1.3212890625,0-2.36865234375,0.515625t-1.65966796875,1.396484375l-0.859375-0.794921875q0.794921875-1.052734375,2.06787109375-1.654296875t2.81982421875-0.6015625q1.826171875,0,3.22265625,1.052734375t1.396484375,3.0830078125q0,1.1708984375-0.55322265625,2.3310546875t-1.740234375,2.44921875t-2.3203125,2.2880859375t-3.04541015625,2.5458984375l7.7236328125,0l0,1.138671875l-9.6787109375,0z M89.890625,23.3427734375l0.8486328125-0.7412109375q1.4287109375,2.041015625,4.1142578125,2.041015625q1.697265625,0,2.6962890625-0.837890625t0.9990234375-2.2880859375q0-1.5146484375-1.0849609375-2.25048828125t-2.8466796875-0.73583984375q-0.923828125,0-1.3642578125,0.04296875l0-1.1923828125q0.21484375,0.021484375,1.3642578125,0.021484375q1.5791015625,0,2.64794921875-0.70361328125t1.06884765625-2.08935546875q0-1.3212890625-1.009765625-2.07861328125t-2.513671875-0.75732421875q-2.2666015625,0-3.931640625,1.869140625l-0.794921875-0.794921875q1.826171875-2.2236328125,4.791015625-2.212890625q1.998046875,0,3.36767578125,1.03125t1.36962890625,2.8359375q0,1.03125-0.55322265625,1.826171875t-1.2138671875,1.13330078125t-1.38037109375,0.46728515625q1.1923828125,0.12890625,2.27734375,1.07958984375t1.0849609375,2.57275390625q0,1.84765625-1.33203125,3.029296875t-3.6201171875,1.181640625q-1.697265625,0-2.986328125-0.6982421875t-1.998046875-1.7509765625z M104.51611328125,23.3857421875l0.8271484375-0.8271484375q1.4716796875,2.0947265625,4.1142578125,2.083984375q1.5791015625,0,2.62646484375-1.009765625t1.04736328125-2.53515625q0-1.654296875-1.0205078125-2.61572265625t-2.6318359375-0.96142578125q-1.998046875,0-3.5556640625,1.4287109375l-0.9453125-0.3974609375l0-7.7021484375l8.46484375,0l0,1.138671875l-7.21875,0l0,5.7470703125q1.4072265625-1.3642578125,3.501953125-1.3642578125q1.955078125,0,3.3193359375,1.24072265625t1.3642578125,3.44287109375q0,2.1376953125-1.4287109375,3.4375t-3.5234375,1.2998046875q-3.265625-0.0107421875-4.94140625-2.40625z M118.12109375,23.3427734375l0.8486328125-0.7412109375q1.4287109375,2.041015625,4.1142578125,2.041015625q1.697265625,0,2.6962890625-0.837890625t0.9990234375-2.2880859375q0-1.5146484375-1.0849609375-2.25048828125t-2.8466796875-0.73583984375q-0.923828125,0-1.3642578125,0.04296875l0-1.1923828125q0.21484375,0.021484375,1.3642578125,0.021484375q1.5791015625,0,2.64794921875-0.70361328125t1.06884765625-2.08935546875q0-1.3212890625-1.009765625-2.07861328125t-2.513671875-0.75732421875q-2.2666015625,0-3.931640625,1.869140625l-0.794921875-0.794921875q1.826171875-2.2236328125,4.791015625-2.212890625q1.998046875,0,3.36767578125,1.03125t1.36962890625,2.8359375q0,1.03125-0.55322265625,1.826171875t-1.2138671875,1.13330078125t-1.38037109375,0.46728515625q1.1923828125,0.12890625,2.27734375,1.07958984375t1.0849609375,2.57275390625q0,1.84765625-1.33203125,3.029296875t-3.6201171875,1.181640625q-1.697265625,0-2.986328125-0.6982421875t-1.998046875-1.7509765625z">
 </path>

 <path d="M1.2783203125,18.197265625q0-1.998046875,0.537109375-3.65234375t1.84765625-2.7822265625t3.22265625-1.1279296875q2.4599609375,0,3.9638671875,1.869140625l-0.73046875,0.90234375q-1.2568359375-1.6328125-3.2333984375-1.6328125q-1.138671875,0-2.0087890625,0.55859375t-1.353515625,1.50927734375t-0.72509765625,2.04638671875t-0.24169921875,2.3310546875q0,0.4619140625,0.021484375,0.6875q0.5478515625-0.90234375,1.73486328125-1.67578125t2.55126953125-0.7734375q2.0947265625,0,3.41064453125,1.19775390625t1.31591796875,3.44287109375q0,1.912109375-1.3427734375,3.30322265625t-3.5771484375,1.39111328125q-1.138671875,0-2.06787109375-0.4189453125t-1.546875-1.12255859375t-1.0205078125-1.6865234375t-0.580078125-2.05712890625t-0.17724609375-2.3095703125z M2.642578125,20.087890625q0.0859375,1.1171875,0.4833984375,2.08935546875t1.2998046875,1.71875t2.19140625,0.74658203125q1.740234375,0,2.72314453125-1.09033203125t0.98291015625-2.43310546875q0-1.740234375-1.01513671875-2.63720703125t-2.66943359375-0.89697265625q-1.1923828125,0-2.27734375,0.69287109375t-1.71875,1.81005859375z M15.15185546875,14.2548828125l3.2333984375-3.4052734375l1.1494140625,0l0,14.673828125l-1.2568359375,0l0-12.955078125l-2.3525390625,2.5029296875z M24.36328125,18.197265625q0-1.998046875,0.537109375-3.65234375t1.84765625-2.7822265625t3.22265625-1.1279296875q2.4599609375,0,3.9638671875,1.869140625l-0.73046875,0.90234375q-1.2568359375-1.6328125-3.2333984375-1.6328125q-1.138671875,0-2.0087890625,0.55859375t-1.353515625,1.50927734375t-0.72509765625,2.04638671875t-0.24169921875,2.3310546875q0,0.4619140625,0.021484375,0.6875q0.5478515625-0.90234375,1.73486328125-1.67578125t2.55126953125-0.7734375q2.0947265625,0,3.41064453125,1.19775390625t1.31591796875,3.44287109375q0,1.912109375-1.3427734375,3.30322265625t-3.5771484375,1.39111328125q-1.138671875,0-2.06787109375-0.4189453125t-1.546875-1.12255859375t-1.0205078125-1.6865234375t-0.580078125-2.05712890625t-0.17724609375-2.3095703125z M25.7275390625,20.087890625q0.0859375,1.1171875,0.4833984375,2.08935546875t1.2998046875,1.71875t2.19140625,0.74658203125q1.740234375,0,2.72314453125-1.09033203125t0.98291015625-2.43310546875q0-1.740234375-1.01513671875-2.63720703125t-2.66943359375-0.89697265625q-1.1923828125,0-2.27734375,0.69287109375t-1.71875,1.81005859375z M45.6650390625,14.2548828125l3.2333984375-3.4052734375l1.1494140625,0l0,14.673828125l-1.2568359375,0l0-12.955078125l-2.3525390625,2.5029296875z M54.37158203125,21.5166015625l0-1.1171875l6.509765625-9.5498046875l1.697265625,0l0,9.5283203125l2.1484375,0l0,1.138671875l-2.1484375,0l0,4.0068359375l-1.2568359375,0l0-4.0068359375l-6.9501953125,0z M55.67138671875,20.3779296875l5.650390625,0l0-8.271484375z M68.4599609375,25.5234375l0-1.03125q1.76171875-1.4287109375,2.814453125-2.3095703125t2.23974609375-2.00341796875t1.8154296875-1.94970703125t1.04736328125-1.7294921875t0.4189453125-1.7294921875q0-1.4716796875-0.9990234375-2.234375t-2.341796875-0.7626953125q-1.3212890625,0-2.36865234375,0.515625t-1.65966796875,1.396484375l-0.859375-0.794921875q0.794921875-1.052734375,2.06787109375-1.654296875t2.81982421875-0.6015625q1.826171875,0,3.22265625,1.052734375t1.396484375,3.0830078125q0,1.1708984375-0.55322265625,2.3310546875t-1.740234375,2.44921875t-2.3203125,2.2880859375t-3.04541015625,2.5458984375l7.7236328125,0l0,1.138671875l-9.6787109375,0z M89.890625,23.3427734375l0.8486328125-0.7412109375q1.4287109375,2.041015625,4.1142578125,2.041015625q1.697265625,0,2.6962890625-0.837890625t0.9990234375-2.2880859375q0-1.5146484375-1.0849609375-2.25048828125t-2.8466796875-0.73583984375q-0.923828125,0-1.3642578125,0.04296875l0-1.1923828125q0.21484375,0.021484375,1.3642578125,0.021484375q1.5791015625,0,2.64794921875-0.70361328125t1.06884765625-2.08935546875q0-1.3212890625-1.009765625-2.07861328125t-2.513671875-0.75732421875q-2.2666015625,0-3.931640625,1.869140625l-0.794921875-0.794921875q1.826171875-2.2236328125,4.791015625-2.212890625q1.998046875,0,3.36767578125,1.03125t1.36962890625,2.8359375q0,1.03125-0.55322265625,1.826171875t-1.2138671875,1.13330078125t-1.38037109375,0.46728515625q1.1923828125,0.12890625,2.27734375,1.07958984375t1.0849609375,2.57275390625q0,1.84765625-1.33203125,3.029296875t-3.6201171875,1.181640625q-1.697265625,0-2.986328125-0.6982421875t-1.998046875-1.7509765625z M104.51611328125,23.3857421875l0.8271484375-0.8271484375q1.4716796875,2.0947265625,4.1142578125,2.083984375q1.5791015625,0,2.62646484375-1.009765625t1.04736328125-2.53515625q0-1.654296875-1.0205078125-2.61572265625t-2.6318359375-0.96142578125q-1.998046875,0-3.5556640625,1.4287109375l-0.9453125-0.3974609375l0-7.7021484375l8.46484375,0l0,1.138671875l-7.21875,0l0,5.7470703125q1.4072265625-1.3642578125,3.501953125-1.3642578125q1.955078125,0,3.3193359375,1.24072265625t1.3642578125,3.44287109375q0,2.1376953125-1.4287109375,3.4375t-3.5234375,1.2998046875q-3.265625-0.0107421875-4.94140625-2.40625z M118.12109375,23.3427734375l0.8486328125-0.7412109375q1.4287109375,2.041015625,4.1142578125,2.041015625q1.697265625,0,2.6962890625-0.837890625t0.9990234375-2.2880859375q0-1.5146484375-1.0849609375-2.25048828125t-2.8466796875-0.73583984375q-0.923828125,0-1.3642578125,0.04296875l0-1.1923828125q0.21484375,0.021484375,1.3642578125,0.021484375q1.5791015625,0,2.64794921875-0.70361328125t1.06884765625-2.08935546875q0-1.3212890625-1.009765625-2.07861328125t-2.513671875-0.75732421875q-2.2666015625,0-3.931640625,1.869140625l-0.794921875-0.794921875q1.826171875-2.2236328125,4.791015625-2.212890625q1.998046875,0,3.36767578125,1.03125t1.36962890625,2.8359375q0,1.03125-0.55322265625,1.826171875t-1.2138671875,1.13330078125t-1.38037109375,0.46728515625q1.1923828125,0.12890625,2.27734375,1.07958984375t1.0849609375,2.57275390625q0,1.84765625-1.33203125,3.029296875t-3.6201171875,1.181640625q-1.697265625,0-2.986328125-0.6982421875t-1.998046875-1.7509765625z">
 </path>
 </svg>
