<svg version="1.1" class="truck-logo" xmlns="http://www.w3.org/2000/svg" xmlns:xlink="http://www.w3.org/1999/xlink" x="0px" y="0px"
 viewBox="0 0 94.5 40.8" style="enable-background:new 0 0 94.5 40.8;" xml:space="preserve"> 
 <g>
 <path class="st0" d="M10.6,20.8c2,0,3.6,1.6,3.6,3.6c0,2-1.6,3.6-3.6,3.6c-2,0-3.6-1.6-3.6-3.6C6.9,22.5,8.5,20.8,10.6,20.8
 L10.6,20.8z M10.6,22.7c-1,0-1.7,0.8-1.7,1.7c0,1,0.8,1.7,1.7,1.7c1,0,1.7-0.8,1.7-1.7C12.3,23.5,11.5,22.7,10.6,22.7z"/>
 <g>
 <path class="st0" d="M28.7,0.7c-3.3,0-15.6,4.8-15.8,5.2c-0.4,0.8-2.9,5.5-2.9,5.9c0,0.3-5.5,1.4-6.6,3.1
 c-0.9,1.5-2.4,5.7-2.7,6.7c-0.1,0.3-0.1,0.2,0.1,0.2c1.5,0,3.5,0,4.6-0.1c1-0.1,1.7-2.3,2.7-2.3c1,0,5,0,9.2,0
 c5.9,0,12.4,0,12.4,0C29.9,14.2,30,9,30.1,3.8C30.1,3.8,30.1,1.8,28.7,0.7L28.7,0.7z M12.4,12.5c0,0,1.4-3.5,2.4-4.2
 c1-0.7,2.8-1,3.5-1c0.7,0,1.7,1.4,2.1,3.1C20.7,11.8,12.8,14.6,12.4,12.5z"/>
 <path class="st0" d="M14.2,20.8h18.7c0,0-1,1-1.4,2.8c-0.3,1.7-0.3,2.4-0.3,2.4H15.6C15.6,26,15.6,21.9,14.2,20.8z"/>
 <rect x="0.6" y="22.8" class="st0" width="5.2" height="2.1"/>
 <path class="st0" d="M93.7,19.5L90,16.2H31.5v-2.5h55.6l-3.3-2.9H31.5v8.7H93.7L93.7,19.5z M80.9,8.3l-2.9-2.5H31.5v2.5H80.9
 L80.9,8.3z M75.2,3.2L71.5,0h-40v3.2H75.2z"/>
 </g>
 <path class="st0" d="M36.7,20.8c2,0,3.6,1.6,3.6,3.6c0,2-1.6,3.6-3.6,3.6c-2,0-3.6-1.6-3.6-3.6C33.1,22.5,34.7,20.8,36.7,20.8
 L36.7,20.8z M36.7,22.7c-1,0-1.7,0.8-1.7,1.7c0,1,0.8,1.7,1.7,1.7c1,0,1.7-0.8,1.7-1.7C38.4,23.5,37.7,22.7,36.7,22.7z"/>
 <path class="st0" d="M49.4,20.8c2,0,3.6,1.6,3.6,3.6c0,2-1.6,3.6-3.6,3.6c-2,0-3.6-1.6-3.6-3.6C45.8,22.5,47.4,20.8,49.4,20.8
 L49.4,20.8z M49.4,22.7c-1,0-1.7,0.8-1.7,1.7c0,1,0.8,1.7,1.7,1.7c1,0,1.7-0.8,1.7-1.7C51.2,23.5,50.4,22.7,49.4,22.7z"/>
 <path class="st0" d="M78.3,20.8c2,0,3.6,1.6,3.6,3.6c0,2-1.6,3.6-3.6,3.6c-2,0-3.6-1.6-3.6-3.6C74.6,22.5,76.3,20.8,78.3,20.8
 L78.3,20.8z M78.3,22.7c-1,0-1.7,0.8-1.7,1.7c0,1,0.8,1.7,1.7,1.7c1,0,1.7-0.8,1.7-1.7C80,23.5,79.2,22.7,78.3,22.7z"/>
 <path class="st0" d="M90.9,20.8c2,0,3.6,1.6,3.6,3.6c0,2-1.6,3.6-3.6,3.6c-2,0-3.6-1.6-3.6-3.6C87.2,22.5,88.9,20.8,90.9,20.8
 L90.9,20.8z M90.9,22.7c-1,0-1.7,0.8-1.7,1.7c0,1,0.8,1.7,1.7,1.7c1,0,1.7-0.8,1.7-1.7C92.6,23.5,91.8,22.7,90.9,22.7z"/>
 <path class="st0" d="M91.1,31.1H0l67,9.7C57,32.2,85.8,31.8,91.1,31.1z"/>
 </g>
 </svg>

